<?xml version="1.0" encoding="utf-8"?>
<!-- Generator: Adobe Illustrator 22.1.0, SVG Export Plug-In . SVG Version: 6.00 Build 0)  -->
<svg version="1.1" id="Vrstva_1" xmlns="http://www.w3.org/2000/svg" xmlns:xlink="http://www.w3.org/1999/xlink" x="0px" y="0px"
	 viewBox="0 0 412 409" style="enable-background:new 0 0 412 409;" xml:space="preserve">
<style type="text/css">
	.st0{fill:none;stroke:#B3B3B3;stroke-width:9;stroke-miterlimit:10;}
	.st1{fill:none;stroke:#B3B3B3;stroke-width:6;stroke-miterlimit:10;}
	.st2{fill:#B3B3B3;}
	.st3{fill:none;stroke:#B3B3B3;stroke-miterlimit:10;}
</style>
<g>
	<g>
		<g>
			<path class="st0" d="M6,379c0-78,3-156,8-235c1-20,0-40,5-60c54-22,107-46,161-68c3-2,6-4,9-5c2,0,5-2,7-2c1-1,4-2,5-3
				c3-1,7,1,11,2c4,2,7,3,11,4c17,7,30,18,41,34c2,3,3,6,5,9c5,8,6,17,8,26c3,26,2,52,2,78c26,2,51,7,76,14c18,6,38,10,47,27
				c7,12,5,25,5,38c2,24,2,47,0,71c-15,10-30,20-46,29c-3,2-5,4-8,6c-10,5-19,12-29,18c-2,1-3,1-5,2c-13,9-24,15-37,23c-3,2-5,4-8,6
				c-7,4-14,8-21,12C171,397,89,385,6,379L6,379z"/>
		</g>
		<g>
			<path class="st0" d="M257,405c-1-36,0-72-1-108c-1-6-2-11-8-14c-1,0-1,0-2,0c-6-5-14-7-22-9c-22-6-44-10-67-13c-3,0-5,0-8,0
				c-13-2-26-4-39-4c3-32,3-64,6-97c1-8-1-16-2-24c-8-44-58-57-96-50"/>
		</g>
		<g>
			<path class="st1" d="M257,40c-20,9-39,18-59,26c-19,7-37,14-55,22c-2,1-3,0-5,1c-14,7-28,11-41,19"/>
		</g>
		<g>
			<path class="st1" d="M127,127c16-9,33-16,50-22c26-11,50-22,75-34c10,11,8,28,9,42c-42,21-86,36-128,58c1-7,2-15,1-22
				c-1-4-1-7-3-11C130,134,130,130,127,127L127,127z"/>
		</g>
		<g>
			<path class="st1" d="M274,292c0,26,0,53,0,79c19-13,39-25,59-37c21-12,41-23,61-35c0-24,0-48,0-72C355,251,314,270,274,292
				L274,292z"/>
		</g>
		<g>
			<g>
				<path class="st1" d="M266,274c11-6,21-12,32-18c-7-4-15-8-22-12c-12,5-23,12-34,19C250,266,258,270,266,274L266,274z"/>
			</g>
			<g>
				<path class="st1" d="M289,237c7,3,14,7,21,11c20-14,43-22,63-36c-7-3-13-7-20-11C332,214,309,223,289,237L289,237z"/>
			</g>
			<g>
				<path class="st1" d="M311,205c9-4,18-7,27-11c-8-3-16-7-24-11c-8,4-17,8-25,12C296,198,304,202,311,205L311,205z"/>
			</g>
			<g>
				<path class="st1" d="M298,213c-10,6-20,11-30,17c-6-2-11-6-17-8c-3-1-6-1-9-3c11-5,21-11,32-16C282,207,290,210,298,213L298,213
					z"/>
			</g>
			<g>
				<path class="st1" d="M255,239c-10,6-20,12-31,18c-10-3-20-5-30-7c10-8,23-13,33-21C236,232,245,236,255,239L255,239z"/>
			</g>
			<g>
				<path class="st1" d="M177,245c12-7,24-14,36-22c-10-2-19-6-28-9c-12,8-26,14-38,23C157,239,167,243,177,245L177,245z"/>
			</g>
			<g>
				<path class="st1" d="M196,205c10,1,19,6,29,8c11-5,21-11,32-16c-10-2-19-6-29-9C217,193,207,199,196,205L196,205z"/>
			</g>
			<g>
				<path class="st1" d="M247,180c8,2,15,6,23,8c9-4,17-8,26-12c-8-2-17-4-25-7C263,172,255,176,247,180L247,180z"/>
			</g>
		</g>
		<g>
			<path class="st2" d="M348,298c1-7-5-13-11-11c-5,3-6,9-5,14s6,9,11,7C346,306,349,302,348,298L348,298z"/>
			<path class="st3" d="M348,298c1-7-5-13-11-11c-5,3-6,9-5,14s6,9,11,7C346,306,349,302,348,298L348,298z"/>
		</g>
	</g>
</g>
</svg>
